<svg xmlns="http://www.w3.org/2000/svg" width="900" height="450" viewBox="0 0 900 450" role="img" aria-labelledby="title desc">
  <title id="title">snowf14k3 native shell profile (light)</title>
  <desc id="desc">A transparent native shell profile showing interests and live GitHub statistics.</desc>
  <style>
    .body { font-family: "Cascadia Mono", "SFMono-Regular", Menlo, Consolas, "Liberation Mono", monospace; font-size: 14px; font-variant-ligatures: none; }
    .utility { font-family: "Cascadia Mono", "SFMono-Regular", Menlo, Consolas, "Liberation Mono", monospace; font-size: 11px; font-variant-ligatures: none; }
    .cursor { animation: blink 1.1s step-end infinite; }
    @keyframes blink { 50% { opacity: 0; } }
    @media (prefers-reduced-motion: reduce) { .cursor { animation: none; } }
  </style>

  <text x="18" y="20" class="body"><tspan fill="#1A7F37">snowf14k3@github</tspan><tspan fill="#24292F">:</tspan><tspan fill="#0969DA">~</tspan><tspan fill="#24292F">$ cat /etc/profile.d/0x0AB8</tspan></text>
  <path d="M 6 30 H 18 M 92 30 H 500 M 500 30 H 512 M 590 30 H 894 V 122 H 6 V 30 M 500 30 V 122" stroke="#57606A" stroke-opacity="0.36" stroke-width="1" fill="none" shape-rendering="crispEdges" />
    <text x="24" y="34" class="utility" fill="#0A7B83">profile.d</text>
    <text x="518" y="34" class="utility" fill="#8250DF">languages</text>

    <path d="M 6 154 H 18 M 110 154 H 420 M 420 154 H 430 M 540 154 H 894 V 264 H 6 V 154 M 420 154 V 264" stroke="#57606A" stroke-opacity="0.36" stroke-width="1" fill="none" shape-rendering="crispEdges" />
    <text x="24" y="158" class="utility" fill="#9A6700">metrics / 1y</text>
    <text x="436" y="158" class="utility" fill="#1A7F37">activity / 365d</text>

    <path d="M 6 296 H 18 M 150 296 H 478 V 414 H 6 V 296" stroke="#57606A" stroke-opacity="0.36" stroke-width="1" fill="none" shape-rendering="crispEdges" />
    <text x="24" y="300" class="utility" fill="#0969DA">languages / commit</text>
  <text x="18" y="52" class="body" fill="#24292F">NAME=<tspan fill="#0A7B83">0x0AB8</tspan></text>
  <text x="18" y="72" class="body" fill="#24292F">ROLE=<tspan fill="#0969DA">&quot;Full-stack Developer&quot;</tspan></text>
  <text x="18" y="92" class="body" fill="#24292F">FOCUS=<tspan fill="#9A6700">&quot;Learning &amp; Building&quot;</tspan></text>
  <text x="18" y="112" class="body" fill="#24292F">INTERESTS=(<tspan fill="#8250DF">&quot;Reverse Engineering&quot;</tspan>)</text>
  <text x="520" y="52" class="body"><tspan fill="#b07219">&quot;Java&quot;</tspan><tspan fill="#24292F"> </tspan><tspan fill="#3178c6">&quot;TypeScript&quot;</tspan><tspan fill="#24292F"> </tspan><tspan fill="#00ADD8">&quot;Go&quot;</tspan><tspan fill="#24292F"> </tspan><tspan fill="#41b883">&quot;Vue&quot;</tspan><tspan fill="#24292F"> </tspan><tspan fill="#4F5D95">&quot;PHP&quot;</tspan></text><text x="520" y="72" class="body"><tspan fill="#f1e05a">&quot;JavaScript&quot;</tspan><tspan fill="#24292F"> </tspan><tspan fill="#ff5a03">&quot;Astro&quot;</tspan><tspan fill="#24292F"> </tspan><tspan fill="#3572A5">&quot;Python&quot;</tspan><tspan fill="#24292F"> </tspan><tspan fill="#663399">&quot;CSS&quot;</tspan></text><text x="520" y="92" class="body"><tspan fill="#f7523f">&quot;Blade&quot;</tspan></text>

  <text x="18" y="144" class="body"><tspan fill="#1A7F37">snowf14k3@github</tspan><tspan fill="#24292F">:</tspan><tspan fill="#0969DA">~</tspan><tspan fill="#24292F">$ ./profile --stats --since=1y</tspan></text>
  <text x="18" y="180" class="body" fill="#24292F">989<tspan fill="#57606A"> contributions</tspan></text>
  <text x="202" y="180" class="body" fill="#24292F">931<tspan fill="#57606A"> commits / 1y</tspan></text>
  <text x="18" y="201" class="body" fill="#24292F">10<tspan fill="#57606A"> public repos</tspan></text>
  <text x="202" y="201" class="body" fill="#24292F">16<tspan fill="#57606A"> pull requests / 1y</tspan></text>
  <text x="18" y="222" class="body" fill="#24292F">14<tspan fill="#57606A"> stars</tspan></text>
  <text x="202" y="222" class="body" fill="#24292F">6<tspan fill="#57606A"> issues / 1y</tspan></text>
  <text x="18" y="243" class="body" fill="#24292F">2020<tspan fill="#57606A"> joined GitHub</tspan></text>
  <text x="202" y="243" class="body" fill="#24292F">53<tspan fill="#57606A"> contributed repos / 1y</tspan></text>
  
    <path d="M 435.00 243.00 L 443.52 243.00 L 452.04 243.00 L 460.56 242.40 L 469.08 243.00 L 477.60 243.00 L 486.12 241.19 L 494.63 242.40 L 503.15 243.00 L 511.67 243.00 L 520.19 243.00 L 528.71 240.59 L 537.23 230.36 L 545.75 233.37 L 554.27 240.59 L 562.79 233.97 L 571.31 229.16 L 579.83 238.19 L 588.35 243.00 L 596.87 236.98 L 605.38 240.59 L 613.90 235.78 L 622.42 235.18 L 630.94 236.98 L 639.46 230.36 L 647.98 239.39 L 656.50 205.69 L 665.02 229.16 L 673.54 194.85 L 682.06 223.74 L 690.58 205.69 L 699.10 218.93 L 707.62 218.32 L 716.13 209.30 L 724.65 241.19 L 733.17 243.00 L 741.69 242.40 L 750.21 243.00 L 758.73 236.98 L 767.25 243.00 L 775.77 238.79 L 784.29 238.79 L 792.81 243.00 L 801.33 243.00 L 809.85 243.00 L 818.37 224.94 L 826.88 222.54 L 835.40 217.12 L 843.92 222.54 L 852.44 197.86 L 860.96 233.97 L 869.48 178.00 L 878.00 210.50 L 878.00 243.00 L 435.00 243.00 Z" fill="#1A7F37" fill-opacity="0.16" />
    <path d="M 435.00 243.00 L 443.52 243.00 L 452.04 243.00 L 460.56 242.40 L 469.08 243.00 L 477.60 243.00 L 486.12 241.19 L 494.63 242.40 L 503.15 243.00 L 511.67 243.00 L 520.19 243.00 L 528.71 240.59 L 537.23 230.36 L 545.75 233.37 L 554.27 240.59 L 562.79 233.97 L 571.31 229.16 L 579.83 238.19 L 588.35 243.00 L 596.87 236.98 L 605.38 240.59 L 613.90 235.78 L 622.42 235.18 L 630.94 236.98 L 639.46 230.36 L 647.98 239.39 L 656.50 205.69 L 665.02 229.16 L 673.54 194.85 L 682.06 223.74 L 690.58 205.69 L 699.10 218.93 L 707.62 218.32 L 716.13 209.30 L 724.65 241.19 L 733.17 243.00 L 741.69 242.40 L 750.21 243.00 L 758.73 236.98 L 767.25 243.00 L 775.77 238.79 L 784.29 238.79 L 792.81 243.00 L 801.33 243.00 L 809.85 243.00 L 818.37 224.94 L 826.88 222.54 L 835.40 217.12 L 843.92 222.54 L 852.44 197.86 L 860.96 233.97 L 869.48 178.00 L 878.00 210.50" fill="none" stroke="#1A7F37" stroke-width="2" />
    <line x1="435" y1="243" x2="878" y2="243" stroke="#57606A" stroke-opacity="0.45" />
    <text x="435.00" y="258" text-anchor="start" class="utility" fill="#57606A">25/09</text><text x="520.19" y="258" text-anchor="middle" class="utility" fill="#57606A">25/11</text><text x="605.38" y="258" text-anchor="middle" class="utility" fill="#57606A">26/01</text><text x="690.58" y="258" text-anchor="middle" class="utility" fill="#57606A">26/03</text><text x="775.77" y="258" text-anchor="middle" class="utility" fill="#57606A">26/06</text><text x="878.00" y="258" text-anchor="end" class="utility" fill="#57606A">26/08</text>
  

  <text x="18" y="286" class="body"><tspan fill="#1A7F37">snowf14k3@github</tspan><tspan fill="#24292F">:</tspan><tspan fill="#0969DA">~</tspan><tspan fill="#24292F">$ ./profile --languages-by-commit</tspan></text>
  
        <text x="18" y="323" class="body" fill="#24292F">Java</text>
        <rect x="145" y="312" width="228" height="12" fill="#57606A" fill-opacity="0.14" shape-rendering="crispEdges" />
        <rect x="145" y="312" width="91.20" height="12" fill="#b07219" shape-rendering="crispEdges" />
        <text x="466" y="323" text-anchor="end" class="body" fill="#57606A">40%</text>
      
        <text x="18" y="343" class="body" fill="#24292F">Go</text>
        <rect x="145" y="332" width="228" height="12" fill="#57606A" fill-opacity="0.14" shape-rendering="crispEdges" />
        <rect x="145" y="332" width="75.24" height="12" fill="#00ADD8" shape-rendering="crispEdges" />
        <text x="466" y="343" text-anchor="end" class="body" fill="#57606A">33%</text>
      
        <text x="18" y="363" class="body" fill="#24292F">TypeScript</text>
        <rect x="145" y="352" width="228" height="12" fill="#57606A" fill-opacity="0.14" shape-rendering="crispEdges" />
        <rect x="145" y="352" width="27.36" height="12" fill="#3178c6" shape-rendering="crispEdges" />
        <text x="466" y="363" text-anchor="end" class="body" fill="#57606A">12%</text>
      
        <text x="18" y="383" class="body" fill="#24292F">JavaScript</text>
        <rect x="145" y="372" width="228" height="12" fill="#57606A" fill-opacity="0.14" shape-rendering="crispEdges" />
        <rect x="145" y="372" width="25.08" height="12" fill="#f1e05a" shape-rendering="crispEdges" />
        <text x="466" y="383" text-anchor="end" class="body" fill="#57606A">11%</text>
      
        <text x="18" y="403" class="body" fill="#24292F">Python</text>
        <rect x="145" y="392" width="228" height="12" fill="#57606A" fill-opacity="0.14" shape-rendering="crispEdges" />
        <rect x="145" y="392" width="9.12" height="12" fill="#3572A5" shape-rendering="crispEdges" />
        <text x="466" y="403" text-anchor="end" class="body" fill="#57606A">4%</text>
      

  <text x="18" y="440" class="body"><tspan fill="#1A7F37">snowf14k3@github</tspan><tspan fill="#24292F">:</tspan><tspan fill="#0969DA">~</tspan><tspan fill="#24292F">$ </tspan><tspan fill="#24292F" class="cursor">█</tspan></text>
  <text x="882" y="440" text-anchor="end" class="utility" fill="#57606A">updated 2026-09-01 07:13 UTC+8</text>
</svg>
